<?xml version="1.0" encoding="utf-8"?>
<!-- Generator: Adobe Illustrator 28.4.1, SVG Export Plug-In . SVG Version: 6.00 Build 0)  -->
<svg version="1.1" id="Layer_1" xmlns="http://www.w3.org/2000/svg" xmlns:xlink="http://www.w3.org/1999/xlink" x="0px" y="0px"
	 viewBox="0 0 2000 2000" style="enable-background:new 0 0 2000 2000;" xml:space="preserve">
<style type="text/css">
	.st0{fill:#701FE5;}
</style>
<path class="st0" d="M1719.7,1187.2c-0.2-2.4-0.2-4.6,0-7c9.3-87.7-16.6-202.8-78.1-316.6c-107.7-199.5-283.6-319.3-392.8-267.3
	c-24.5,11.7-42.7,31-55.6,53.4c-12.8,22-13.4,50.1-40.9,61.8c-18.3,7.7-42.4,3-53.7-12.5c-11.5-15.5-8.4-36.8-1.3-54.4
	C1142.7,532.9,1225,365.5,1082,288c-141.2-76.5-417.3-2.4-616.8,321.7c-132.6,215.5-197.8,431.1-185,574c0.2,2.1,0.2,4.1,0,6.2
	c-1.1,10.9-1.7,22-1.7,33.2c0,285.3,323.1,516.6,721.6,516.6c398.5,0,721.5-231.3,721.5-516.6
	C1721.6,1211.1,1720.9,1199,1719.7,1187.2z M676.6,1398.1c-62.6,0-113.3-64.3-113.3-143.9c0-79.5,50.7-144,113.3-144
	c62.4,0,113.2,64.5,113.2,144C789.8,1333.7,739.1,1398.1,676.6,1398.1z M997.9,1397.4c-62.6,0-113.2-64.5-113.2-144
	c0-79.5,50.6-143.9,113.2-143.9c62.4,0,113.2,64.3,113.2,143.9C1111.1,1332.9,1060.3,1397.4,997.9,1397.4z"/>
</svg>
