<?xml version="1.0" encoding="utf-8"?>
<!-- Generator: Adobe Illustrator 28.4.1, SVG Export Plug-In . SVG Version: 6.00 Build 0)  -->
<svg version="1.1" id="Layer_1" xmlns="http://www.w3.org/2000/svg" xmlns:xlink="http://www.w3.org/1999/xlink" x="0px" y="0px"
	 viewBox="0 0 2000 1200" style="enable-background:new 0 0 2000 1200;" xml:space="preserve">
<style type="text/css">
	.st0{fill:#EDEDED;}
</style>
<g>
	<path class="st0" d="M214.1,748.8c-18,0-32.7-0.3-44.2-0.8c-11.5-0.5-20.4-2-26.8-4.5c-6.4-2.4-11-6.5-13.7-12.3
		c-2.7-5.7-4.4-13.8-5-24c-0.6-10.3-0.9-23.5-0.9-39.6V583h153.1c0-3.3-0.2-5.3-0.7-5.8c-0.5-0.5-2.6-0.8-6.3-0.8h-146v-59.7h131.3
		c18,0,32.7,0.3,44.2,0.8c11.5,0.6,20.4,2,26.8,4.5c6.4,2.4,11,6.5,13.7,12.3c2.7,5.8,4.4,13.7,5,23.9c0.6,10.2,0.9,23.4,0.9,39.8
		v44.8H192.3c0,3.3,0.2,5.3,0.7,5.8c0.5,0.6,2.6,0.8,6.3,0.8h146v99.5H214.1z"/>
	<path class="st0" d="M352.7,748.8V516.6h110.9v79.6c3.7,0,5.9-0.3,6.5-0.8c0.6-0.5,0.9-2.5,0.9-5.8v-73H582v126.1H508
		c0,3.3,0.3,5.3,0.9,5.8c0.6,0.6,2.8,0.8,6.5,0.8H582v99.5H471.1V642.7c-3.7,0-5.9,0.3-6.5,0.8c-0.6,0.6-0.9,2.5-0.9,5.8v99.5H352.7
		z"/>
	<path class="st0" d="M728,516.6c18,0,32.7,0.3,44.2,0.8c11.5,0.6,20.4,2,26.8,4.5c6.4,2.4,11,6.5,13.7,12.3
		c2.7,5.8,4.4,13.7,5,23.9c0.6,10.2,0.9,23.4,0.9,39.8v69.7c0,16.1-0.3,29.4-0.9,39.6c-0.6,10.3-2.3,18.3-5,24
		c-2.7,5.8-7.3,9.8-13.7,12.3c-6.4,2.4-15.3,3.9-26.6,4.5c-11.3,0.6-26.1,0.8-44.4,0.8H680c-18,0-32.7-0.3-44.2-0.8
		c-11.5-0.5-20.4-2-26.8-4.5c-6.4-2.4-11-6.5-13.7-12.3c-2.7-5.7-4.4-13.8-5-24c-0.6-10.3-0.9-23.5-0.9-39.6v-69.7
		c0-16.4,0.3-29.6,0.9-39.8c0.6-10.2,2.3-18.1,5-23.9c2.7-5.7,7.3-9.8,13.7-12.3c6.4-2.4,15.3-3.9,26.8-4.5
		c11.5-0.5,26.2-0.8,44.2-0.8H728z M700.3,583v59.7c0,3.3,0.3,5.3,0.9,5.8c0.6,0.6,2.8,0.8,6.5,0.8v-59.7c0-3.3-0.3-5.3-0.9-5.8
		C706.2,583.3,704,583,700.3,583z"/>
	<path class="st0" d="M826,516.6h138.7c18,0,32.7,0.3,44.2,0.8c11.5,0.6,20.4,2,26.8,4.5c6.4,2.4,11,6.5,13.7,12.3
		c2.7,5.8,4.4,13.7,5,23.9c0.6,10.2,0.9,23.4,0.9,39.8v150.9H944.3V589.6c0-2.7-0.1-4.4-0.4-5.1c-0.2-0.8-1.4-1.3-3.3-1.5h-3.7
		v165.9H826V516.6z"/>
	<path class="st0" d="M1221.6,748.8h-110.9v-33.2h-48.1v-199h207.1v199h-48.1V748.8z"/>
	<path class="st0" d="M1277.1,748.8V516.6h138.7c18,0,32.7,0.3,44.2,0.8c11.5,0.6,20.4,2,26.8,4.5c6.4,2.4,11,6.5,13.7,12.3
		c2.7,5.8,4.4,13.7,5,23.9c0.6,10.2,0.9,23.4,0.9,39.8v44.8h-55.5c0,3.1,0.3,5,0.9,5.6c0.6,0.7,2.8,1,6.5,1h48.1v99.5h-110.9v-99.5
		h-7.4v99.5H1277.1z M1395.4,599.6v-29.9c0-3.3-0.3-5.3-0.9-5.8c-0.6-0.5-2.8-0.8-6.5-0.8v36.5H1395.4z"/>
	<path class="st0" d="M1652.4,516.6c18,0,32.7,0.3,44.2,0.8c11.5,0.6,20.4,2,26.8,4.5c6.4,2.4,11,6.5,13.7,12.3
		c2.7,5.8,4.4,13.7,5,23.9c0.6,10.2,0.9,23.4,0.9,39.8v69.7c0,16.1-0.3,29.4-0.9,39.6c-0.6,10.3-2.3,18.3-5,24
		c-2.7,5.8-7.3,9.8-13.7,12.3c-6.4,2.4-15.3,3.9-26.6,4.5c-11.3,0.6-26.1,0.8-44.4,0.8h-48.1c-18,0-32.7-0.3-44.2-0.8
		c-11.5-0.5-20.4-2-26.8-4.5c-6.4-2.4-11-6.5-13.7-12.3c-2.7-5.7-4.4-13.8-5-24c-0.6-10.3-0.9-23.5-0.9-39.6v-69.7
		c0-16.4,0.3-29.6,0.9-39.8c0.6-10.2,2.3-18.1,5-23.9c2.7-5.7,7.3-9.8,13.7-12.3c6.4-2.4,15.3-3.9,26.8-4.5
		c11.5-0.5,26.2-0.8,44.2-0.8H1652.4z M1624.6,583v59.7c0,3.3,0.3,5.3,0.9,5.8c0.6,0.6,2.8,0.8,6.5,0.8v-59.7c0-3.3-0.3-5.3-0.9-5.8
		C1630.5,583.3,1628.3,583,1624.6,583z"/>
	<path class="st0" d="M1840.9,748.8c-18,0-32.7-0.3-44.2-0.8c-11.5-0.5-20.4-2-26.8-4.5c-6.4-2.4-11-6.5-13.7-12.3
		c-2.7-5.7-4.4-13.8-5-24c-0.6-10.3-0.9-23.5-0.9-39.6V516.6h110.9V583h37v165.9H1840.9z"/>
</g>
</svg>
